<svg width="35" height="35" viewBox="0 0 35 35" fill="none" xmlns="http://www.w3.org/2000/svg">
<path d="M35 17.5C35 27.165 27.165 35 17.5 35C7.83502 35 0 27.165 0 17.5C0 7.83502 7.83502 0 17.5 0C27.165 0 35 7.83502 35 17.5Z" fill="#D9D9D9"/>
<path d="M26.8907 22.6177C26.6333 21.8453 26.1667 21.0663 25.4785 20.6129C24.1544 19.7339 22.6117 19.2651 21.1199 18.7632C20.76 18.6371 20.3944 18.4996 20.0655 18.3041C19.7719 18.1297 19.6617 17.7719 19.5935 17.4576C19.5634 17.2914 19.5449 17.1209 19.5354 16.9531C20.6171 15.4734 21.3347 13.0584 21.3347 11.0783C21.3347 7.98799 19.5885 7.1268 17.4349 7.1268C15.2809 7.1268 13.5351 7.98671 13.5351 11.077C13.5351 13.128 14.3044 15.6439 15.4513 17.1055C15.4409 17.2209 15.4271 17.3362 15.4064 17.4511C15.338 17.7653 15.2279 18.1164 14.9345 18.2908C14.6053 18.4864 14.2397 18.6105 13.8798 18.7366C12.388 19.2385 10.8453 19.6811 9.5215 20.56C8.83296 21.0134 8.36661 21.8453 8.10939 22.6177C7.84451 23.4193 7.73618 24.4121 7.75251 25.2167H17.4996H27.2475C27.264 24.4122 27.1554 23.4193 26.8907 22.6177Z" fill="#404142"/>
</svg>
