<svg width="35" height="35" viewBox="0 0 35 35" fill="none" xmlns="http://www.w3.org/2000/svg">
<path d="M35 17.5C35 27.165 27.165 35 17.5 35C7.83502 35 0 27.165 0 17.5C0 7.83502 7.83502 0 17.5 0C27.165 0 35 7.83502 35 17.5Z" fill="#D9D9D9"/>
<g clip-path="url(#clip0_79_14)">
<path d="M26.564 16.9382C25.8746 17.5995 24.9596 17.964 23.9861 17.964H18.9116V18.9574C18.9116 19.3765 18.5681 19.7201 18.1484 19.7201H16.8515C16.432 19.7201 16.0886 19.3766 16.0886 18.9574V17.964H11.0138C10.0404 17.964 9.12522 17.5995 8.43594 16.9382C8.30497 16.8124 8.18509 16.6789 8.0769 16.5388V23.4637C8.0769 24.1675 8.65267 24.7428 9.35598 24.7428H25.6441C26.3474 24.7428 26.923 24.1675 26.923 23.4637V16.5388C26.8147 16.6789 26.6953 16.8124 26.564 16.9382Z" fill="#404142"/>
<path d="M25.6442 10.5453H9.35598C8.65267 10.5453 8.0769 11.1211 8.0769 11.8243V15.087C8.20055 15.6088 8.474 16.0887 8.87901 16.477C9.44837 17.0232 10.2067 17.3243 11.0138 17.3243H16.0886V16.3311C16.0886 15.9115 16.432 15.568 16.8515 15.568H18.1484C18.5681 15.568 18.9116 15.9114 18.9116 16.3311V17.3243H23.9861C24.7931 17.3243 25.5517 17.0232 26.1209 16.477C26.5255 16.0881 26.7995 15.6086 26.9231 15.0866V11.8243C26.9231 11.1211 26.3474 10.5453 25.6442 10.5453Z" fill="#404142"/>
<path d="M15.2636 9.26624C15.2636 9.22995 15.2735 9.1769 15.3202 9.13056C15.3663 9.08418 15.4193 9.07413 15.4558 9.07413H19.5446C19.5806 9.07413 19.6338 9.08422 19.68 9.13056C19.7266 9.17694 19.7365 9.22998 19.7365 9.26624V9.90579H20.8234V9.26624C20.8233 8.93897 20.6986 8.6117 20.449 8.36192C20.1992 8.11202 19.8717 7.98717 19.5445 7.98717H15.4558C15.1285 7.98717 14.8008 8.11202 14.5511 8.36192C14.3016 8.61163 14.1767 8.93897 14.1767 9.26624V9.90579H15.2636V9.26624Z" fill="#404142"/>
<path d="M18.1485 19.0805C18.2156 19.0805 18.2717 19.0243 18.2717 18.9572V17.9638V17.3243V16.3311C18.2717 16.264 18.2156 16.2075 18.1485 16.2075H16.8515C16.7845 16.2075 16.7278 16.264 16.7278 16.3311V17.3243V17.9638V18.9572C16.7278 19.0243 16.7845 19.0805 16.8515 19.0805H18.1485Z" fill="#404142"/>
</g>
<defs>
<clipPath id="clip0_79_14">
<rect width="18.8462" height="18.8462" fill="white" transform="translate(8.0769 6.73077)"/>
</clipPath>
</defs>
</svg>
