<svg width="35" height="35" viewBox="0 0 35 35" fill="none" xmlns="http://www.w3.org/2000/svg">
<path d="M35 17.5C35 27.165 27.165 35 17.5 35C7.83502 35 0 27.165 0 17.5C0 7.83502 7.83502 0 17.5 0C27.165 0 35 7.83502 35 17.5Z" fill="#D9D9D9"/>
<path d="M24.6795 18.2853V22.8335C24.6795 25.305 19.4842 26.4744 16.6025 26.4744C13.8636 26.4744 8.52562 25.2252 8.52562 22.8335V17.185L16.6025 21.5493L24.6795 18.2853ZM17.4255 8.52567L5.83331 13.6859L16.6025 19.5193L26.4743 15.5553V21.9872H28.2692V14.5834L17.4255 8.52567ZM29.1666 26.4744H25.5769C26.0956 25.5769 26.4743 24.2308 26.4743 22.8846H28.2692C28.2692 24.2452 28.6201 25.4504 29.1666 26.4744Z" fill="#414141"/>
</svg>
