<svg width="14" height="14" viewBox="0 0 14 14" fill="none" xmlns="http://www.w3.org/2000/svg">
<path d="M14 7C14 10.866 10.866 14 7 14C3.13401 14 0 10.866 0 7C0 3.13401 3.13401 0 7 0C10.866 0 14 3.13401 14 7Z" fill="#414141"/>
<path d="M7 2C9.76 2 12 4.29758 12 7.12853C12 9.38508 10.57 11.3134 8.59 11.9904C8.34 12.0417 8.25 11.8775 8.25 11.7442C8.25 11.5698 8.26 11.016 8.26 10.339C8.26 9.85691 8.1 9.5492 7.92 9.38508C9.03 9.262 10.2 8.82095 10.2 6.85159C10.2 6.28745 10.01 5.83614 9.69 5.47714C9.74 5.35406 9.91 4.82069 9.64 4.12321C9.64 4.12321 9.22 3.97961 8.26 4.64632C7.86 4.53349 7.44 4.47195 7.01 4.47195C6.59 4.47195 6.16 4.53349 5.76 4.64632C4.81 3.98987 4.39 4.12321 4.39 4.12321C4.11 4.82069 4.29 5.35406 4.34 5.47714C4.02 5.83614 3.83 6.29771 3.83 6.85159C3.83 8.82095 4.99 9.262 6.1 9.38508C5.96 9.51843 5.83 9.74408 5.78 10.0723C5.49 10.2056 4.78 10.421 4.33 9.65177C4.23 9.49791 3.95 9.1184 3.56 9.12866C3.14 9.12866 3.39 9.36457 3.56 9.46714C3.78 9.59022 4.02 10.0415 4.08 10.1851C4.18 10.4723 4.5 11.0262 5.76 10.7903C5.76 11.2211 5.76 11.6211 5.76 11.7442C5.76 11.8775 5.67 12.0314 5.42 11.9904C3.43 11.3134 2 9.39534 2 7.12853C2 4.29758 4.24 2 7 2Z" fill="white"/>
</svg>
