<svg width="14" height="14" viewBox="0 0 14 14" fill="none" xmlns="http://www.w3.org/2000/svg">
<path d="M14 7C14 10.866 10.866 14 7 14C3.13401 14 0 10.866 0 7C0 3.13401 3.13401 0 7 0C10.866 0 14 3.13401 14 7Z" fill="#414141"/>
<path d="M5.49289 5.12348V10H4.11058V5.12348H5.49289ZM5.60348 3.77896C5.60348 4.21646 5.23855 4.5686 4.79621 4.5686C4.35387 4.5686 4 4.21646 4 3.77896C4 3.35213 4.35387 3 4.79621 3C5.23855 3 5.60348 3.35213 5.60348 3.77896ZM11 7.00152V10H9.61769V7.51372C9.61769 6.01982 7.78199 6.13719 7.78199 7.51372V10H6.41074V5.12348H7.78199V5.91311C8.42338 4.76067 11 4.6753 11 7.00152Z" fill="white"/>
</svg>
